<?xml version="1.0" encoding="us-ascii" standalone="no"?><svg xmlns="http://www.w3.org/2000/svg" xmlns:xlink="http://www.w3.org/1999/xlink" contentStyleType="text/css" height="1247px" preserveAspectRatio="none" style="width:2010px;height:1247px;background:#FFFFFF;" version="1.1" viewBox="0 0 2010 1247" width="2010px" zoomAndPan="magnify"><defs/><g><!--class Main--><g id="elem_Main"><rect codeLine="16" fill="#FFFFFF" height="648.625" id="Main" rx="5" ry="5" style="stroke:#000000;stroke-width:1.0;" width="243" x="1011" y="7"/><ellipse cx="1109.25" cy="24.8047" fill="#ADD1B2" rx="11" ry="11" style="stroke:#181818;stroke-width:1.0;"/><path d="M1112.0156,20.6797 Q1112.1719,20.4609 1112.3594,20.3516 Q1112.5469,20.2422 1112.7656,20.2422 Q1113.1406,20.2422 1113.375,20.5078 Q1113.6094,20.7578 1113.6094,21.3672 L1113.6094,22.8203 Q1113.6094,23.4297 1113.375,23.6953 Q1113.1406,23.9609 1112.7656,23.9609 Q1112.4219,23.9609 1112.2188,23.7578 Q1112.0156,23.5703 1111.9063,23.0547 Q1111.8594,22.6953 1111.6719,22.5078 Q1111.3438,22.1328 1110.7344,21.9141 Q1110.125,21.6953 1109.5,21.6953 Q1108.7344,21.6953 1108.0938,22.0234 Q1107.4688,22.3516 1106.9688,23.1016 Q1106.4844,23.8516 1106.4844,24.8828 L1106.4844,25.9766 Q1106.4844,27.2109 1107.375,28.0391 Q1108.2656,28.8516 1109.8594,28.8516 Q1110.7969,28.8516 1111.4531,28.6016 Q1111.8438,28.4453 1112.2656,28.0078 Q1112.5313,27.7422 1112.6719,27.6641 Q1112.8281,27.5859 1113.0313,27.5859 Q1113.3594,27.5859 1113.6094,27.8516 Q1113.875,28.1016 1113.875,28.4453 Q1113.875,28.7891 1113.5313,29.1953 Q1113.0313,29.7734 1112.2344,30.1016 Q1111.1563,30.5547 1109.8594,30.5547 Q1108.3438,30.5547 1107.1406,29.9297 Q1106.1563,29.4297 1105.4688,28.3672 Q1104.7813,27.2891 1104.7813,26.0078 L1104.7813,24.8516 Q1104.7813,23.5234 1105.3906,22.3828 Q1106.0156,21.2266 1107.1094,20.6172 Q1108.2031,19.9922 1109.4375,19.9922 Q1110.1719,19.9922 1110.8125,20.1641 Q1111.4688,20.3203 1112.0156,20.6797 Z " fill="#000000"/><text fill="#000000" font-family="sans-serif" font-size="14" lengthAdjust="spacing" textLength="30" x="1133.75" y="30.5332">Main</text><line style="stroke:#000000;stroke-width:1.0;" x1="1012" x2="1253" y1="42.6094" y2="42.6094"/><rect fill="none" height="6" style="stroke:#C82930;stroke-width:1.0;" width="6" x="1019" y="87.5234"/><text fill="#000000" font-family="sans-serif" font-size="14" lengthAdjust="spacing" textLength="147" x="1035" y="94.752">gameState: GameState</text><rect fill="none" height="6" style="stroke:#C82930;stroke-width:1.0;" width="6" x="1019" y="113.1328"/><text fill="#000000" font-family="sans-serif" font-size="14" lengthAdjust="spacing" textLength="159" x="1035" y="120.3613">currentDifficulty: Difficulty</text><rect fill="none" height="6" style="stroke:#C82930;stroke-width:1.0;" width="6" x="1019" y="138.7422"/><text fill="#000000" font-family="sans-serif" font-size="14" lengthAdjust="spacing" textLength="130" x="1035" y="145.9707">planeX, planeY: float</text><rect fill="none" height="6" style="stroke:#C82930;stroke-width:1.0;" width="6" x="1019" y="164.3516"/><text fill="#000000" font-family="sans-serif" font-size="14" lengthAdjust="spacing" textLength="51" x="1035" y="171.5801">lives: int</text><rect fill="none" height="6" style="stroke:#C82930;stroke-width:1.0;" width="6" x="1019" y="189.9609"/><text fill="#000000" font-family="sans-serif" font-size="14" lengthAdjust="spacing" textLength="58" x="1035" y="197.1895">score: int</text><rect fill="none" height="6" style="stroke:#C82930;stroke-width:1.0;" width="6" x="1019" y="215.5703"/><text fill="#000000" font-family="sans-serif" font-size="14" lengthAdjust="spacing" textLength="56" x="1035" y="222.7988">coins: int</text><text fill="#000000" font-family="sans-serif" font-size="14" lengthAdjust="spacing" textLength="4" x="1035" y="248.4082">&#160;</text><line style="stroke:#000000;stroke-width:1.0;" x1="1012" x2="1075" y1="63.4141" y2="63.4141"/><line style="stroke:#000000;stroke-width:1.0;" x1="1012" x2="1075" y1="65.4141" y2="65.4141"/><text fill="#000000" font-family="sans-serif" font-size="14" lengthAdjust="spacing" textLength="107" x="1079" y="68.6426">Game Properties</text><line style="stroke:#000000;stroke-width:1.0;" x1="1190" x2="1253" y1="63.4141" y2="63.4141"/><line style="stroke:#000000;stroke-width:1.0;" x1="1190" x2="1253" y1="65.4141" y2="65.4141"/><ellipse cx="1022" cy="299.3984" fill="#84BE84" rx="3" ry="3" style="stroke:#038048;stroke-width:1.0;"/><text fill="#000000" font-family="sans-serif" font-size="14" lengthAdjust="spacing" textLength="84" x="1035" y="303.627">create(): void</text><ellipse cx="1022" cy="325.0078" fill="#84BE84" rx="3" ry="3" style="stroke:#038048;stroke-width:1.0;"/><text fill="#000000" font-family="sans-serif" font-size="14" lengthAdjust="spacing" textLength="86" x="1035" y="329.2363">render(): void</text><ellipse cx="1022" cy="350.6172" fill="#84BE84" rx="3" ry="3" style="stroke:#038048;stroke-width:1.0;"/><text fill="#000000" font-family="sans-serif" font-size="14" lengthAdjust="spacing" textLength="93" x="1035" y="354.8457">dispose(): void</text><text fill="#000000" font-family="sans-serif" font-size="14" lengthAdjust="spacing" textLength="4" x="1035" y="380.4551">&#160;</text><line style="stroke:#000000;stroke-width:1.0;" x1="1012" x2="1091.5" y1="272.2891" y2="272.2891"/><line style="stroke:#000000;stroke-width:1.0;" x1="1012" x2="1091.5" y1="274.2891" y2="274.2891"/><text fill="#000000" font-family="sans-serif" font-size="14" lengthAdjust="spacing" textLength="74" x="1095.5" y="277.5176">Game Loop</text><line style="stroke:#000000;stroke-width:1.0;" x1="1173.5" x2="1253" y1="272.2891" y2="272.2891"/><line style="stroke:#000000;stroke-width:1.0;" x1="1173.5" x2="1253" y1="274.2891" y2="274.2891"/><rect fill="#F24D5C" height="6" style="stroke:#C82930;stroke-width:1.0;" width="6" x="1019" y="428.4453"/><text fill="#000000" font-family="sans-serif" font-size="14" lengthAdjust="spacing" textLength="193" x="1035" y="435.6738">updateBullets(deltaTime: float)</text><rect fill="#F24D5C" height="6" style="stroke:#C82930;stroke-width:1.0;" width="6" x="1019" y="454.0547"/><text fill="#000000" font-family="sans-serif" font-size="14" lengthAdjust="spacing" textLength="107" x="1035" y="461.2832">checkCollisions()</text><rect fill="#F24D5C" height="6" style="stroke:#C82930;stroke-width:1.0;" width="6" x="1019" y="479.6641"/><text fill="#000000" font-family="sans-serif" font-size="14" lengthAdjust="spacing" textLength="209" x="1035" y="486.8926">updateMonsters(deltaTime: float)</text><rect fill="#F24D5C" height="6" style="stroke:#C82930;stroke-width:1.0;" width="6" x="1019" y="505.2734"/><text fill="#000000" font-family="sans-serif" font-size="14" lengthAdjust="spacing" textLength="81" x="1035" y="512.502">spawnBoss()</text><text fill="#000000" font-family="sans-serif" font-size="14" lengthAdjust="spacing" textLength="4" x="1035" y="538.1113">&#160;</text><line style="stroke:#000000;stroke-width:1.0;" x1="1012" x2="1090.5" y1="404.3359" y2="404.3359"/><line style="stroke:#000000;stroke-width:1.0;" x1="1012" x2="1090.5" y1="406.3359" y2="406.3359"/><text fill="#000000" font-family="sans-serif" font-size="14" lengthAdjust="spacing" textLength="76" x="1094.5" y="409.5645">Game Logic</text><line style="stroke:#000000;stroke-width:1.0;" x1="1174.5" x2="1253" y1="404.3359" y2="404.3359"/><line style="stroke:#000000;stroke-width:1.0;" x1="1174.5" x2="1253" y1="406.3359" y2="406.3359"/><rect fill="#F24D5C" height="6" style="stroke:#C82930;stroke-width:1.0;" width="6" x="1019" y="586.1016"/><text fill="#000000" font-family="sans-serif" font-size="14" lengthAdjust="spacing" textLength="84" x="1035" y="593.3301">handleInput()</text><rect fill="#F24D5C" height="6" style="stroke:#C82930;stroke-width:1.0;" width="6" x="1019" y="611.7109"/><text fill="#000000" font-family="sans-serif" font-size="14" lengthAdjust="spacing" textLength="119" x="1035" y="618.9395">handleMenuInput()</text><rect fill="#F24D5C" height="6" style="stroke:#C82930;stroke-width:1.0;" width="6" x="1019" y="637.3203"/><text fill="#000000" font-family="sans-serif" font-size="14" lengthAdjust="spacing" textLength="117" x="1035" y="644.5488">handleShopInput()</text><line style="stroke:#000000;stroke-width:1.0;" x1="1012" x2="1069" y1="561.9922" y2="561.9922"/><line style="stroke:#000000;stroke-width:1.0;" x1="1012" x2="1069" y1="563.9922" y2="563.9922"/><text fill="#000000" font-family="sans-serif" font-size="14" lengthAdjust="spacing" textLength="119" x="1073" y="567.2207">State Management</text><line style="stroke:#000000;stroke-width:1.0;" x1="1196" x2="1253" y1="561.9922" y2="561.9922"/><line style="stroke:#000000;stroke-width:1.0;" x1="1196" x2="1253" y1="563.9922" y2="563.9922"/></g><!--class GameState--><g id="elem_GameState"><rect codeLine="47" fill="#FFFFFF" height="179.6563" id="GameState" rx="5" ry="5" style="stroke:#000000;stroke-width:1.0;" width="111" x="1892" y="241.5"/><ellipse cx="1907" cy="259.3047" fill="#EB937F" rx="11" ry="11" style="stroke:#181818;stroke-width:1.0;"/><path d="M1905.8594,260.1016 L1905.8594,262.6016 L1910.1875,262.6016 L1910.1875,261.6797 Q1910.1875,261.0703 1910.4219,260.8047 Q1910.6719,260.5391 1911.0469,260.5391 Q1911.4219,260.5391 1911.6563,260.8047 Q1911.8906,261.0703 1911.8906,261.6797 L1911.8906,264.3047 L1903.8906,264.3047 Q1903.2656,264.3047 1903,264.0703 Q1902.75,263.8359 1902.75,263.4453 Q1902.75,263.0703 1903.0156,262.8359 Q1903.2813,262.6016 1903.8906,262.6016 L1904.1563,262.6016 L1904.1563,255.9453 L1903.8906,255.9453 Q1903.2656,255.9453 1903,255.7109 Q1902.75,255.4766 1902.75,255.0859 Q1902.75,254.7109 1903,254.4766 Q1903.2656,254.2422 1903.8906,254.2422 L1911.5156,254.2422 L1911.5156,256.8359 Q1911.5156,257.4453 1911.2813,257.7109 Q1911.0625,257.9609 1910.6719,257.9609 Q1910.2969,257.9609 1910.0625,257.7109 Q1909.8281,257.4453 1909.8281,256.8359 L1909.8281,255.9453 L1905.8594,255.9453 L1905.8594,258.3984 L1907.3438,258.3984 Q1907.3438,257.7422 1907.4688,257.5547 Q1907.7344,257.1484 1908.2031,257.1484 Q1908.5781,257.1484 1908.8125,257.4141 Q1909.0469,257.6641 1909.0469,258.2734 L1909.0469,260.2422 Q1909.0469,260.7891 1908.9219,260.9766 Q1908.6563,261.3672 1908.2031,261.3672 Q1907.7344,261.3672 1907.4688,260.9609 Q1907.3438,260.7734 1907.3438,260.1016 L1905.8594,260.1016 Z " fill="#000000"/><text fill="#000000" font-family="sans-serif" font-size="14" lengthAdjust="spacing" textLength="71" x="1925" y="265.0332">GameState</text><line style="stroke:#000000;stroke-width:1.0;" x1="1893" x2="2002" y1="277.1094" y2="277.1094"/><text fill="#000000" font-family="sans-serif" font-size="14" lengthAdjust="spacing" textLength="38" x="1902" y="299.6426">MENU</text><text fill="#000000" font-family="sans-serif" font-size="14" lengthAdjust="spacing" textLength="58" x="1902" y="325.252">PLAYING</text><text fill="#000000" font-family="sans-serif" font-size="14" lengthAdjust="spacing" textLength="55" x="1902" y="350.8613">PAUSED</text><text fill="#000000" font-family="sans-serif" font-size="14" lengthAdjust="spacing" textLength="38" x="1902" y="376.4707">SHOP</text><text fill="#000000" font-family="sans-serif" font-size="14" lengthAdjust="spacing" textLength="87" x="1902" y="402.0801">GAME_OVER</text><line style="stroke:#000000;stroke-width:1.0;" x1="1893" x2="2002" y1="413.1563" y2="413.1563"/></g><!--class Difficulty--><g id="elem_Difficulty"><rect codeLine="55" fill="#FFFFFF" height="128.4375" id="Difficulty" rx="5" ry="5" style="stroke:#000000;stroke-width:1.0;" width="93" x="1699" y="267.5"/><ellipse cx="1714" cy="285.3047" fill="#EB937F" rx="11" ry="11" style="stroke:#181818;stroke-width:1.0;"/><path d="M1712.8594,286.1016 L1712.8594,288.6016 L1717.1875,288.6016 L1717.1875,287.6797 Q1717.1875,287.0703 1717.4219,286.8047 Q1717.6719,286.5391 1718.0469,286.5391 Q1718.4219,286.5391 1718.6563,286.8047 Q1718.8906,287.0703 1718.8906,287.6797 L1718.8906,290.3047 L1710.8906,290.3047 Q1710.2656,290.3047 1710,290.0703 Q1709.75,289.8359 1709.75,289.4453 Q1709.75,289.0703 1710.0156,288.8359 Q1710.2813,288.6016 1710.8906,288.6016 L1711.1563,288.6016 L1711.1563,281.9453 L1710.8906,281.9453 Q1710.2656,281.9453 1710,281.7109 Q1709.75,281.4766 1709.75,281.0859 Q1709.75,280.7109 1710,280.4766 Q1710.2656,280.2422 1710.8906,280.2422 L1718.5156,280.2422 L1718.5156,282.8359 Q1718.5156,283.4453 1718.2813,283.7109 Q1718.0625,283.9609 1717.6719,283.9609 Q1717.2969,283.9609 1717.0625,283.7109 Q1716.8281,283.4453 1716.8281,282.8359 L1716.8281,281.9453 L1712.8594,281.9453 L1712.8594,284.3984 L1714.3438,284.3984 Q1714.3438,283.7422 1714.4688,283.5547 Q1714.7344,283.1484 1715.2031,283.1484 Q1715.5781,283.1484 1715.8125,283.4141 Q1716.0469,283.6641 1716.0469,284.2734 L1716.0469,286.2422 Q1716.0469,286.7891 1715.9219,286.9766 Q1715.6563,287.3672 1715.2031,287.3672 Q1714.7344,287.3672 1714.4688,286.9609 Q1714.3438,286.7734 1714.3438,286.1016 L1712.8594,286.1016 Z " fill="#000000"/><text fill="#000000" font-family="sans-serif" font-size="14" lengthAdjust="spacing" textLength="53" x="1732" y="291.0332">Difficulty</text><line style="stroke:#000000;stroke-width:1.0;" x1="1700" x2="1791" y1="303.1094" y2="303.1094"/><text fill="#000000" font-family="sans-serif" font-size="14" lengthAdjust="spacing" textLength="36" x="1709" y="325.6426">EASY</text><text fill="#000000" font-family="sans-serif" font-size="14" lengthAdjust="spacing" textLength="58" x="1709" y="351.252">NORMAL</text><text fill="#000000" font-family="sans-serif" font-size="14" lengthAdjust="spacing" textLength="38" x="1709" y="376.8613">HARD</text><line style="stroke:#000000;stroke-width:1.0;" x1="1700" x2="1791" y1="387.9375" y2="387.9375"/></g><!--class Monster--><g id="elem_Monster"><rect codeLine="62" fill="#FFFFFF" height="205.2656" id="Monster" rx="5" ry="5" style="stroke:#000000;stroke-width:1.0;" width="185" x="776" y="756"/><ellipse cx="834.75" cy="773.8047" fill="#ADD1B2" rx="11" ry="11" style="stroke:#181818;stroke-width:1.0;"/><path d="M837.5156,769.6797 Q837.6719,769.4609 837.8594,769.3516 Q838.0469,769.2422 838.2656,769.2422 Q838.6406,769.2422 838.875,769.5078 Q839.1094,769.7578 839.1094,770.3672 L839.1094,771.8203 Q839.1094,772.4297 838.875,772.6953 Q838.6406,772.9609 838.2656,772.9609 Q837.9219,772.9609 837.7188,772.7578 Q837.5156,772.5703 837.4063,772.0547 Q837.3594,771.6953 837.1719,771.5078 Q836.8438,771.1328 836.2344,770.9141 Q835.625,770.6953 835,770.6953 Q834.2344,770.6953 833.5938,771.0234 Q832.9688,771.3516 832.4688,772.1016 Q831.9844,772.8516 831.9844,773.8828 L831.9844,774.9766 Q831.9844,776.2109 832.875,777.0391 Q833.7656,777.8516 835.3594,777.8516 Q836.2969,777.8516 836.9531,777.6016 Q837.3438,777.4453 837.7656,777.0078 Q838.0313,776.7422 838.1719,776.6641 Q838.3281,776.5859 838.5313,776.5859 Q838.8594,776.5859 839.1094,776.8516 Q839.375,777.1016 839.375,777.4453 Q839.375,777.7891 839.0313,778.1953 Q838.5313,778.7734 837.7344,779.1016 Q836.6563,779.5547 835.3594,779.5547 Q833.8438,779.5547 832.6406,778.9297 Q831.6563,778.4297 830.9688,777.3672 Q830.2813,776.2891 830.2813,775.0078 L830.2813,773.8516 Q830.2813,772.5234 830.8906,771.3828 Q831.5156,770.2266 832.6094,769.6172 Q833.7031,768.9922 834.9375,768.9922 Q835.6719,768.9922 836.3125,769.1641 Q836.9688,769.3203 837.5156,769.6797 Z " fill="#000000"/><text fill="#000000" font-family="sans-serif" font-size="14" lengthAdjust="spacing" textLength="51" x="859.25" y="779.5332">Monster</text><line style="stroke:#000000;stroke-width:1.0;" x1="777" x2="960" y1="791.6094" y2="791.6094"/><rect fill="none" height="6" style="stroke:#C82930;stroke-width:1.0;" width="6" x="784" y="806.9141"/><text fill="#000000" font-family="sans-serif" font-size="14" lengthAdjust="spacing" textLength="56" x="800" y="814.1426">x, y: float</text><rect fill="none" height="6" style="stroke:#C82930;stroke-width:1.0;" width="6" x="784" y="832.5234"/><text fill="#000000" font-family="sans-serif" font-size="14" lengthAdjust="spacing" textLength="62" x="800" y="839.752">health: int</text><rect fill="none" height="6" style="stroke:#C82930;stroke-width:1.0;" width="6" x="784" y="858.1328"/><text fill="#000000" font-family="sans-serif" font-size="14" lengthAdjust="spacing" textLength="118" x="800" y="865.3613">type: MonsterType</text><line style="stroke:#000000;stroke-width:1.0;" x1="777" x2="960" y1="876.4375" y2="876.4375"/><ellipse cx="787" cy="894.7422" fill="#84BE84" rx="3" ry="3" style="stroke:#038048;stroke-width:1.0;"/><text fill="#000000" font-family="sans-serif" font-size="14" lengthAdjust="spacing" textLength="151" x="800" y="898.9707">update(deltaTime: float)</text><ellipse cx="787" cy="920.3516" fill="#84BE84" rx="3" ry="3" style="stroke:#038048;stroke-width:1.0;"/><text fill="#000000" font-family="sans-serif" font-size="14" lengthAdjust="spacing" textLength="90" x="800" y="924.5801">takeDamage()</text><ellipse cx="787" cy="945.9609" fill="#84BE84" rx="3" ry="3" style="stroke:#038048;stroke-width:1.0;"/><text fill="#000000" font-family="sans-serif" font-size="14" lengthAdjust="spacing" textLength="45" x="800" y="950.1895">shoot()</text></g><!--class Bullet--><g id="elem_Bullet"><rect codeLine="72" fill="#FFFFFF" height="179.6563" id="Bullet" rx="5" ry="5" style="stroke:#000000;stroke-width:1.0;" width="175" x="1045" y="1061"/><ellipse cx="1106.75" cy="1078.8047" fill="#ADD1B2" rx="11" ry="11" style="stroke:#181818;stroke-width:1.0;"/><path d="M1109.5156,1074.6797 Q1109.6719,1074.4609 1109.8594,1074.3516 Q1110.0469,1074.2422 1110.2656,1074.2422 Q1110.6406,1074.2422 1110.875,1074.5078 Q1111.1094,1074.7578 1111.1094,1075.3672 L1111.1094,1076.8203 Q1111.1094,1077.4297 1110.875,1077.6953 Q1110.6406,1077.9609 1110.2656,1077.9609 Q1109.9219,1077.9609 1109.7188,1077.7578 Q1109.5156,1077.5703 1109.4063,1077.0547 Q1109.3594,1076.6953 1109.1719,1076.5078 Q1108.8438,1076.1328 1108.2344,1075.9141 Q1107.625,1075.6953 1107,1075.6953 Q1106.2344,1075.6953 1105.5938,1076.0234 Q1104.9688,1076.3516 1104.4688,1077.1016 Q1103.9844,1077.8516 1103.9844,1078.8828 L1103.9844,1079.9766 Q1103.9844,1081.2109 1104.875,1082.0391 Q1105.7656,1082.8516 1107.3594,1082.8516 Q1108.2969,1082.8516 1108.9531,1082.6016 Q1109.3438,1082.4453 1109.7656,1082.0078 Q1110.0313,1081.7422 1110.1719,1081.6641 Q1110.3281,1081.5859 1110.5313,1081.5859 Q1110.8594,1081.5859 1111.1094,1081.8516 Q1111.375,1082.1016 1111.375,1082.4453 Q1111.375,1082.7891 1111.0313,1083.1953 Q1110.5313,1083.7734 1109.7344,1084.1016 Q1108.6563,1084.5547 1107.3594,1084.5547 Q1105.8438,1084.5547 1104.6406,1083.9297 Q1103.6563,1083.4297 1102.9688,1082.3672 Q1102.2813,1081.2891 1102.2813,1080.0078 L1102.2813,1078.8516 Q1102.2813,1077.5234 1102.8906,1076.3828 Q1103.5156,1075.2266 1104.6094,1074.6172 Q1105.7031,1073.9922 1106.9375,1073.9922 Q1107.6719,1073.9922 1108.3125,1074.1641 Q1108.9688,1074.3203 1109.5156,1074.6797 Z " fill="#000000"/><text fill="#000000" font-family="sans-serif" font-size="14" lengthAdjust="spacing" textLength="35" x="1131.25" y="1084.5332">Bullet</text><line style="stroke:#000000;stroke-width:1.0;" x1="1046" x2="1219" y1="1096.6094" y2="1096.6094"/><rect fill="none" height="6" style="stroke:#C82930;stroke-width:1.0;" width="6" x="1053" y="1111.9141"/><text fill="#000000" font-family="sans-serif" font-size="14" lengthAdjust="spacing" textLength="56" x="1069" y="1119.1426">x, y: float</text><rect fill="none" height="6" style="stroke:#C82930;stroke-width:1.0;" width="6" x="1053" y="1137.5234"/><text fill="#000000" font-family="sans-serif" font-size="14" lengthAdjust="spacing" textLength="82" x="1069" y="1144.752">velocity: float</text><rect fill="none" height="6" style="stroke:#C82930;stroke-width:1.0;" width="6" x="1053" y="1163.1328"/><text fill="#000000" font-family="sans-serif" font-size="14" lengthAdjust="spacing" textLength="112" x="1069" y="1170.3613">isEnemy: boolean</text><line style="stroke:#000000;stroke-width:1.0;" x1="1046" x2="1219" y1="1181.4375" y2="1181.4375"/><ellipse cx="1056" cy="1199.7422" fill="#84BE84" rx="3" ry="3" style="stroke:#038048;stroke-width:1.0;"/><text fill="#000000" font-family="sans-serif" font-size="14" lengthAdjust="spacing" textLength="141" x="1069" y="1203.9707">move(deltaTime: float)</text><ellipse cx="1056" cy="1225.3516" fill="#84BE84" rx="3" ry="3" style="stroke:#038048;stroke-width:1.0;"/><text fill="#000000" font-family="sans-serif" font-size="14" lengthAdjust="spacing" textLength="100" x="1069" y="1229.5801">checkCollision()</text></g><!--class MonsterType--><g id="elem_MonsterType"><rect codeLine="81" fill="#FFFFFF" height="128.4375" id="MonsterType" rx="5" ry="5" style="stroke:#000000;stroke-width:1.0;" width="123" x="7" y="267.5"/><ellipse cx="22" cy="285.3047" fill="#EB937F" rx="11" ry="11" style="stroke:#181818;stroke-width:1.0;"/><path d="M20.8594,286.1016 L20.8594,288.6016 L25.1875,288.6016 L25.1875,287.6797 Q25.1875,287.0703 25.4219,286.8047 Q25.6719,286.5391 26.0469,286.5391 Q26.4219,286.5391 26.6563,286.8047 Q26.8906,287.0703 26.8906,287.6797 L26.8906,290.3047 L18.8906,290.3047 Q18.2656,290.3047 18,290.0703 Q17.75,289.8359 17.75,289.4453 Q17.75,289.0703 18.0156,288.8359 Q18.2813,288.6016 18.8906,288.6016 L19.1563,288.6016 L19.1563,281.9453 L18.8906,281.9453 Q18.2656,281.9453 18,281.7109 Q17.75,281.4766 17.75,281.0859 Q17.75,280.7109 18,280.4766 Q18.2656,280.2422 18.8906,280.2422 L26.5156,280.2422 L26.5156,282.8359 Q26.5156,283.4453 26.2813,283.7109 Q26.0625,283.9609 25.6719,283.9609 Q25.2969,283.9609 25.0625,283.7109 Q24.8281,283.4453 24.8281,282.8359 L24.8281,281.9453 L20.8594,281.9453 L20.8594,284.3984 L22.3438,284.3984 Q22.3438,283.7422 22.4688,283.5547 Q22.7344,283.1484 23.2031,283.1484 Q23.5781,283.1484 23.8125,283.4141 Q24.0469,283.6641 24.0469,284.2734 L24.0469,286.2422 Q24.0469,286.7891 23.9219,286.9766 Q23.6563,287.3672 23.2031,287.3672 Q22.7344,287.3672 22.4688,286.9609 Q22.3438,286.7734 22.3438,286.1016 L20.8594,286.1016 Z " fill="#000000"/><text fill="#000000" font-family="sans-serif" font-size="14" lengthAdjust="spacing" textLength="83" x="40" y="291.0332">MonsterType</text><line style="stroke:#000000;stroke-width:1.0;" x1="8" x2="129" y1="303.1094" y2="303.1094"/><text fill="#000000" font-family="sans-serif" font-size="14" lengthAdjust="spacing" textLength="58" x="17" y="325.6426">NORMAL</text><text fill="#000000" font-family="sans-serif" font-size="14" lengthAdjust="spacing" textLength="36" x="17" y="351.252">FAST</text><text fill="#000000" font-family="sans-serif" font-size="14" lengthAdjust="spacing" textLength="49" x="17" y="376.8613">TOUGH</text><line style="stroke:#000000;stroke-width:1.0;" x1="8" x2="129" y1="387.9375" y2="387.9375"/></g><!--class ShopSystem--><g id="elem_ShopSystem"><rect codeLine="88" fill="#FFFFFF" height="154.0469" id="ShopSystem" rx="5" ry="5" style="stroke:#000000;stroke-width:1.0;" width="155" x="756" y="254.5"/><ellipse cx="787.2" cy="272.3047" fill="#ADD1B2" rx="11" ry="11" style="stroke:#181818;stroke-width:1.0;"/><path d="M789.9656,268.1797 Q790.1219,267.9609 790.3094,267.8516 Q790.4969,267.7422 790.7156,267.7422 Q791.0906,267.7422 791.325,268.0078 Q791.5594,268.2578 791.5594,268.8672 L791.5594,270.3203 Q791.5594,270.9297 791.325,271.1953 Q791.0906,271.4609 790.7156,271.4609 Q790.3719,271.4609 790.1688,271.2578 Q789.9656,271.0703 789.8563,270.5547 Q789.8094,270.1953 789.6219,270.0078 Q789.2938,269.6328 788.6844,269.4141 Q788.075,269.1953 787.45,269.1953 Q786.6844,269.1953 786.0438,269.5234 Q785.4188,269.8516 784.9188,270.6016 Q784.4344,271.3516 784.4344,272.3828 L784.4344,273.4766 Q784.4344,274.7109 785.325,275.5391 Q786.2156,276.3516 787.8094,276.3516 Q788.7469,276.3516 789.4031,276.1016 Q789.7938,275.9453 790.2156,275.5078 Q790.4813,275.2422 790.6219,275.1641 Q790.7781,275.0859 790.9813,275.0859 Q791.3094,275.0859 791.5594,275.3516 Q791.825,275.6016 791.825,275.9453 Q791.825,276.2891 791.4813,276.6953 Q790.9813,277.2734 790.1844,277.6016 Q789.1063,278.0547 787.8094,278.0547 Q786.2938,278.0547 785.0906,277.4297 Q784.1063,276.9297 783.4188,275.8672 Q782.7313,274.7891 782.7313,273.5078 L782.7313,272.3516 Q782.7313,271.0234 783.3406,269.8828 Q783.9656,268.7266 785.0594,268.1172 Q786.1531,267.4922 787.3875,267.4922 Q788.1219,267.4922 788.7625,267.6641 Q789.4188,267.8203 789.9656,268.1797 Z " fill="#000000"/><text fill="#000000" font-family="sans-serif" font-size="14" lengthAdjust="spacing" textLength="79" x="808.8" y="278.0332">ShopSystem</text><line style="stroke:#000000;stroke-width:1.0;" x1="757" x2="910" y1="290.1094" y2="290.1094"/><rect fill="none" height="6" style="stroke:#C82930;stroke-width:1.0;" width="6" x="764" y="305.4141"/><text fill="#000000" font-family="sans-serif" font-size="14" lengthAdjust="spacing" textLength="86" x="780" y="312.6426">totalCoins: int</text><rect fill="none" height="6" style="stroke:#C82930;stroke-width:1.0;" width="6" x="764" y="331.0234"/><text fill="#000000" font-family="sans-serif" font-size="14" lengthAdjust="spacing" textLength="121" x="780" y="338.252">unlockedGuns: List</text><line style="stroke:#000000;stroke-width:1.0;" x1="757" x2="910" y1="349.3281" y2="349.3281"/><ellipse cx="767" cy="367.6328" fill="#84BE84" rx="3" ry="3" style="stroke:#038048;stroke-width:1.0;"/><text fill="#000000" font-family="sans-serif" font-size="14" lengthAdjust="spacing" textLength="96" x="780" y="371.8613">purchaseGun()</text><ellipse cx="767" cy="393.2422" fill="#84BE84" rx="3" ry="3" style="stroke:#038048;stroke-width:1.0;"/><text fill="#000000" font-family="sans-serif" font-size="14" lengthAdjust="spacing" textLength="90" x="780" y="397.4707">upgradeGun()</text></g><!--class AudioSystem--><g id="elem_AudioSystem"><rect codeLine="96" fill="#FFFFFF" height="154.0469" id="AudioSystem" rx="5" ry="5" style="stroke:#000000;stroke-width:1.0;" width="159" x="230" y="254.5"/><ellipse cx="261.65" cy="272.3047" fill="#ADD1B2" rx="11" ry="11" style="stroke:#181818;stroke-width:1.0;"/><path d="M264.4156,268.1797 Q264.5719,267.9609 264.7594,267.8516 Q264.9469,267.7422 265.1656,267.7422 Q265.5406,267.7422 265.775,268.0078 Q266.0094,268.2578 266.0094,268.8672 L266.0094,270.3203 Q266.0094,270.9297 265.775,271.1953 Q265.5406,271.4609 265.1656,271.4609 Q264.8219,271.4609 264.6188,271.2578 Q264.4156,271.0703 264.3063,270.5547 Q264.2594,270.1953 264.0719,270.0078 Q263.7438,269.6328 263.1344,269.4141 Q262.525,269.1953 261.9,269.1953 Q261.1344,269.1953 260.4938,269.5234 Q259.8688,269.8516 259.3688,270.6016 Q258.8844,271.3516 258.8844,272.3828 L258.8844,273.4766 Q258.8844,274.7109 259.775,275.5391 Q260.6656,276.3516 262.2594,276.3516 Q263.1969,276.3516 263.8531,276.1016 Q264.2438,275.9453 264.6656,275.5078 Q264.9313,275.2422 265.0719,275.1641 Q265.2281,275.0859 265.4313,275.0859 Q265.7594,275.0859 266.0094,275.3516 Q266.275,275.6016 266.275,275.9453 Q266.275,276.2891 265.9313,276.6953 Q265.4313,277.2734 264.6344,277.6016 Q263.5563,278.0547 262.2594,278.0547 Q260.7438,278.0547 259.5406,277.4297 Q258.5563,276.9297 257.8688,275.8672 Q257.1813,274.7891 257.1813,273.5078 L257.1813,272.3516 Q257.1813,271.0234 257.7906,269.8828 Q258.4156,268.7266 259.5094,268.1172 Q260.6031,267.4922 261.8375,267.4922 Q262.5719,267.4922 263.2125,267.6641 Q263.8688,267.8203 264.4156,268.1797 Z " fill="#000000"/><text fill="#000000" font-family="sans-serif" font-size="14" lengthAdjust="spacing" textLength="82" x="283.35" y="278.0332">AudioSystem</text><line style="stroke:#000000;stroke-width:1.0;" x1="231" x2="388" y1="290.1094" y2="290.1094"/><rect fill="none" height="6" style="stroke:#C82930;stroke-width:1.0;" width="6" x="238" y="305.4141"/><text fill="#000000" font-family="sans-serif" font-size="14" lengthAdjust="spacing" textLength="115" x="254" y="312.6426">gameMusic: Music</text><rect fill="none" height="6" style="stroke:#C82930;stroke-width:1.0;" width="6" x="238" y="331.0234"/><text fill="#000000" font-family="sans-serif" font-size="14" lengthAdjust="spacing" textLength="125" x="254" y="338.252">shootSound: Sound</text><line style="stroke:#000000;stroke-width:1.0;" x1="231" x2="388" y1="349.3281" y2="349.3281"/><ellipse cx="241" cy="367.6328" fill="#84BE84" rx="3" ry="3" style="stroke:#038048;stroke-width:1.0;"/><text fill="#000000" font-family="sans-serif" font-size="14" lengthAdjust="spacing" textLength="77" x="254" y="371.8613">playSound()</text><ellipse cx="241" cy="393.2422" fill="#84BE84" rx="3" ry="3" style="stroke:#038048;stroke-width:1.0;"/><text fill="#000000" font-family="sans-serif" font-size="14" lengthAdjust="spacing" textLength="90" x="254" y="397.4707">updateMusic()</text></g><g id="elem_GMN21"><path d="M1354,278.5 L1354,328 L1254.27,332 L1354,336 L1354,384.6094 A5,5 0 0 0 1359,389.6094 L1594,389.6094 A5,5 0 0 0 1599,384.6094 L1599,283.5 L1589,273.5 L1359,273.5 A5,5 0 0 0 1354,278.5 " fill="#FEFFDD" style="stroke:#181818;stroke-width:0.5;"/><path d="M1589,273.5 L1589,281 A2.5,2.5 0 0 0 1591.5,283.5 L1599,283.5 L1589,273.5 " fill="#FEFFDD" style="stroke:#181818;stroke-width:0.5;"/><text fill="#000000" font-family="sans-serif" font-size="13" font-weight="bold" lengthAdjust="spacing" textLength="158" x="1364" y="295.9951">Game Loop Explanation:</text><text fill="#000000" font-family="sans-serif" font-size="13" lengthAdjust="spacing" textLength="175" x="1364" y="312.3467">1. Input Handling (handleInput)</text><text fill="#000000" font-family="sans-serif" font-size="13" lengthAdjust="spacing" textLength="130" x="1364" y="328.6982">2. Update Game State</text><text fill="#000000" font-family="sans-serif" font-size="13" lengthAdjust="spacing" textLength="216" x="1364" y="345.0498">3. Update Entities (bullets, monsters)</text><text fill="#000000" font-family="sans-serif" font-size="13" lengthAdjust="spacing" textLength="112" x="1364" y="361.4014">4. Check Collisions</text><text fill="#000000" font-family="sans-serif" font-size="13" lengthAdjust="spacing" textLength="97" x="1364" y="377.7529">5. Render Frame</text></g><g id="elem_GMN24"><path d="M752,1114.5 L752,1187.9063 A5,5 0 0 0 757,1192.9063 L940,1192.9063 A5,5 0 0 0 945,1187.9063 L945,1119.5 L935,1109.5 L864.5,1109.5 L860.5,961.21 L856.5,1109.5 L757,1109.5 A5,5 0 0 0 752,1114.5 " fill="#FEFFDD" style="stroke:#181818;stroke-width:0.5;"/><path d="M935,1109.5 L935,1117 A2.5,2.5 0 0 0 937.5,1119.5 L945,1119.5 L935,1109.5 " fill="#FEFFDD" style="stroke:#181818;stroke-width:0.5;"/><text fill="#000000" font-family="sans-serif" font-size="13" font-weight="bold" lengthAdjust="spacing" textLength="115" x="762" y="1131.9951">Monster Behavior:</text><text fill="#000000" font-family="sans-serif" font-size="13" lengthAdjust="spacing" textLength="131" x="762" y="1148.3467">- Moves based on type</text><text fill="#000000" font-family="sans-serif" font-size="13" lengthAdjust="spacing" textLength="103" x="762" y="1164.6982">- Shoots at player</text><text fill="#000000" font-family="sans-serif" font-size="13" lengthAdjust="spacing" textLength="164" x="762" y="1181.0498">- Takes damage from bullets</text></g><g id="elem_GMN27"><path d="M489.5,295 L489.5,368.4063 A5,5 0 0 0 494.5,373.4063 L650.5,373.4063 A5,5 0 0 0 655.5,368.4063 L655.5,336 L755.87,332 L655.5,328 L655.5,300 L645.5,290 L494.5,290 A5,5 0 0 0 489.5,295 " fill="#FEFFDD" style="stroke:#181818;stroke-width:0.5;"/><path d="M645.5,290 L645.5,297.5 A2.5,2.5 0 0 0 648,300 L655.5,300 L645.5,290 " fill="#FEFFDD" style="stroke:#181818;stroke-width:0.5;"/><text fill="#000000" font-family="sans-serif" font-size="13" font-weight="bold" lengthAdjust="spacing" textLength="96" x="499.5" y="312.4951">Shop Features:</text><text fill="#000000" font-family="sans-serif" font-size="13" lengthAdjust="spacing" textLength="122" x="499.5" y="328.8467">- Purchase new guns</text><text fill="#000000" font-family="sans-serif" font-size="13" lengthAdjust="spacing" textLength="137" x="499.5" y="345.1982">- Upgrade existing guns</text><text fill="#000000" font-family="sans-serif" font-size="13" lengthAdjust="spacing" textLength="128" x="499.5" y="361.5498">- Manage player coins</text></g><!--link Main to GameState--><g id="link_Main_GameState"><path codeLine="105" d="M1254.07,409 C1433.35,409 1755.44,409 1885.89,409 " fill="none" id="Main-to-GameState" style="stroke:#000000;stroke-width:1.0;"/><polygon fill="#000000" points="1891.89,409,1882.89,405,1886.89,409,1882.89,413,1891.89,409" style="stroke:#000000;stroke-width:1.0;"/><text fill="#000000" font-family="sans-serif" font-size="13" lengthAdjust="spacing" textLength="73" x="1494.98" y="427.4951">current state</text></g><!--link Main to Difficulty--><g id="link_Main_Difficulty"><path codeLine="106" d="M1254.34,255 C1433.11,255 1745.5,255 1745.5,255 C1745.5,255 1745.5,253.93 1745.5,261.29 " fill="none" id="Main-to-Difficulty" style="stroke:#000000;stroke-width:1.0;"/><polygon fill="#000000" points="1745.5,267.29,1749.5,258.29,1745.5,262.29,1741.5,258.29,1745.5,267.29" style="stroke:#000000;stroke-width:1.0;"/><text fill="#000000" font-family="sans-serif" font-size="13" lengthAdjust="spacing" textLength="76" x="1425.07" y="247.4951">difficulty level</text></g><!--link Main to Monster--><g id="link_Main_Monster"><path codeLine="107" d="M1028,656.19 C1028,764.9 1028,859 1028,859 C1028,859 1002.37,859 967.28,859 " fill="none" id="Main-to-Monster" style="stroke:#000000;stroke-width:1.0;"/><polygon fill="#000000" points="961.28,859,970.28,863,966.28,859,970.28,855,961.28,859" style="stroke:#000000;stroke-width:1.0;"/><text fill="#000000" font-family="sans-serif" font-size="13" lengthAdjust="spacing" textLength="53" x="970" y="783.4451">manages</text></g><!--link Main to Bullet--><g id="link_Main_Bullet"><path codeLine="108" d="M1132.5,656.27 C1132.5,802.22 1132.5,957.21 1132.5,1054.71 " fill="none" id="Main-to-Bullet" style="stroke:#000000;stroke-width:1.0;"/><polygon fill="#000000" points="1132.5,1060.71,1136.5,1051.71,1132.5,1055.71,1128.5,1051.71,1132.5,1060.71" style="stroke:#000000;stroke-width:1.0;"/><text fill="#000000" font-family="sans-serif" font-size="13" lengthAdjust="spacing" textLength="53" x="1074.5" y="850.9851">manages</text></g><!--reverse link ShopSystem to Main--><g id="link_ShopSystem_Main"><path codeLine="109" d="M917.28,332 C947.65,332 977.19,332 1010.79,332 " fill="none" id="ShopSystem-backto-Main" style="stroke:#000000;stroke-width:1.0;"/><polygon fill="#000000" points="911.28,332,920.28,336,916.28,332,920.28,328,911.28,332" style="stroke:#000000;stroke-width:1.0;"/><text fill="#000000" font-family="sans-serif" font-size="13" lengthAdjust="spacing" textLength="28" x="928.03" y="324.4951">uses</text></g><!--reverse link AudioSystem to Main--><g id="link_AudioSystem_Main"><path codeLine="110" d="M309.5,414.54 C309.5,471.43 309.5,533 309.5,533 C309.5,533 781.52,533 1010.62,533 " fill="none" id="AudioSystem-backto-Main" style="stroke:#000000;stroke-width:1.0;"/><polygon fill="#000000" points="309.5,408.54,305.5,417.54,309.5,413.54,313.5,417.54,309.5,408.54" style="stroke:#000000;stroke-width:1.0;"/><text fill="#000000" font-family="sans-serif" font-size="13" lengthAdjust="spacing" textLength="28" x="564.83" y="525.4951">uses</text></g><!--reverse link MonsterType to Monster--><g id="link_MonsterType_Monster"><path codeLine="112" d="M68.5,401.65 C68.5,542.23 68.5,859 68.5,859 C68.5,859 565.36,859 775.95,859 " fill="none" id="MonsterType-backto-Monster" style="stroke:#000000;stroke-width:1.0;"/><polygon fill="#000000" points="68.5,395.65,64.5,404.65,68.5,400.65,72.5,404.65,68.5,395.65" style="stroke:#000000;stroke-width:1.0;"/><text fill="#000000" font-family="sans-serif" font-size="13" lengthAdjust="spacing" textLength="25" x="160.55" y="851.4951">type</text></g><!--link Monster to Bullet--><g id="link_Monster_Bullet"><path codeLine="113" d="M953,961.27 C953,1021.56 953,1086 953,1086 C953,1086 993.29,1086 1038.85,1086 " fill="none" id="Monster-to-Bullet" style="stroke:#000000;stroke-width:1.0;stroke-dasharray:7.0,7.0;"/><polygon fill="#000000" points="1044.85,1086,1035.85,1082,1039.85,1086,1035.85,1090,1044.85,1086" style="stroke:#000000;stroke-width:1.0;"/><text fill="#000000" font-family="sans-serif" font-size="13" lengthAdjust="spacing" textLength="43" x="905" y="1062.0551">creates</text></g><!--SRC=[VLLDRo8v4BtthoZbCg09x6Htze9c8W4XPBIGH05sDgULwIve2xVTijqaQ3N_VSiVJJTaCbnmFvTThwfUbJ_0Z1rKPS6WjLnkJM9sN9PCim9ImOo1_nAWtuYbkwrMbSp6IYWDttDkqUyCjLOl0Hm9iWhcIcUeVuukSvxk9DBLLycFbZl19Tf3YQ2qpLLhGweC3PPmzUbJ2zLCxjwY9Sio2WC-joqTxLHfYPgia-G3Z9L6cB82OUnYJ4AaSyPb3BTjygXLYTfoD7xhwzTpc22_quCjRImiipZmDduPjz9AQvJsXcysFAs4FGoWMKURKZ29_ro6_-S1R8HYDku9laSp02vhm514s0PInMNBuaqSCwNAamWSK7F_2Ab6Ojlf3c2lU1P1eamLEmCpRafbJasZjtZlbgTddWXfqbIL6RaQLKAWDPqCXMLBNc0Ck5l7asEw8ma9RhYIfjCzEJqdoA9-_xWfsOiSALCVZ0nzJQZKacsnm9WhudcEDsnp9ZE1tsHPsIE7WCrHLZ_35xagQ_o7qvjFWlTW4ZfJDEg8UfjFxbT-yJWRFd-xduRrSBMOtFZbukxXqI-cm_datuU_9q_kOdzLew9ursIuUFQB-uUd-N3cbtV3fviMbOcqt0iw2Z_aCfxlmUib74xLboCJDc-hpNNge3wvf8-0zw96Gf7UASv7i6o7DwoWN7TgoEHAnOG5La4Vlo2rHw5IRizGRYOI2mBNIWbayfHNeVRlipfLNE3YSzmAC_9fvVPsk5ZwnV9XDRrh5_n0XuewoKuK0Jc6P9LbOdpQjgHlIM7jC9jM3fznOqz3A2kTvimWxH-JLvLRpR887JCuh3Akpdow4JMl34-fUEwlxXQN_OKRb0FmVsS-1JjukENHTw6xebRvNtY09nJCkdRDUMaIFr5xcczpsxjkYNu05t4UWd70nPbbIzDacZLV0gdejNMcNYGPr-eboyAthpapY49wkozmuxorAaCsbNbZqCxZqIAf_VQgic7X9K8shZqkZYRzVfj5cBJk2gae6JveK1l__YHVrjVDS9wykgV09tJmvRVrTNBL1pzOuCuD6lVGTLhZgPlyteULBqnhv2H_7C6wxw6p3iFtaXeYpD5kyhaFOzS0qCpSvCy-LTGz0N1BBobIDsJWI4VgQsMjAZptS8sZNmSzmfpjkTA1UOzCw0M3DIat0oNz025quOHdW5clCRgX1qiQ3WOoFnvWeyb1P7lktfN7EMyAwFoxBxYb55UQNipe_34s3KXyWIrr5c6hq3I0hzHZBfSH3uz0v1EUrSRp_m00]--></g></svg>